<?xml version="1.0" standalone="no"?>
<!DOCTYPE svg PUBLIC "-//W3C//DTD SVG 20010904//EN"
 "http://www.w3.org/TR/2001/REC-SVG-20010904/DTD/svg10.dtd">
<svg version="1.0" xmlns="http://www.w3.org/2000/svg"
 width="480.000000pt" height="480.000000pt" viewBox="0 0 480.000000 480.000000"
 preserveAspectRatio="xMidYMid meet">

<g transform="translate(0.000000,480.000000) scale(0.100000,-0.100000)"
fill="#4d5094" stroke="none">
<path d="M2225 4790 c-746 -65 -1406 -451 -1810 -1060 -151 -226 -251 -444
-320 -695 -120 -435 -120 -851 0 -1288 197 -722 729 -1315 1426 -1591 156 -62
224 -61 262 4 15 24 17 61 17 245 l0 217 -27 -6 c-63 -15 -289 -18 -361 -6
-172 29 -334 150 -406 305 -102 217 -150 289 -236 352 -95 69 -140 114 -140
138 0 47 92 67 186 40 120 -34 211 -108 304 -245 72 -107 142 -173 228 -213
64 -31 72 -32 192 -32 107 1 135 4 194 25 l69 25 13 60 c16 78 46 146 90 207
41 55 45 51 -76 68 -180 25 -358 86 -504 171 -86 51 -246 209 -294 291 -93
158 -144 336 -163 574 -23 294 35 524 184 718 l53 70 -18 70 c-40 156 -32 334
20 491 l27 80 85 -1 c130 -2 300 -66 493 -188 l88 -55 57 14 c171 43 314 59
542 59 228 0 371 -16 543 -59 l57 -15 73 47 c100 64 247 137 342 168 59 20
102 28 165 29 l85 1 27 -80 c53 -157 60 -351 20 -495 l-18 -66 53 -69 c167
-219 219 -470 172 -840 -50 -397 -257 -680 -600 -820 -108 -44 -243 -80 -361
-96 -51 -7 -94 -14 -96 -15 -2 -1 15 -30 38 -63 23 -34 54 -94 69 -134 l26
-72 5 -443 5 -444 33 -29 c25 -23 42 -29 77 -29 60 0 192 49 360 135 609 309
1052 850 1230 1502 98 356 116 697 55 1048 -172 987 -923 1759 -1900 1954
-206 41 -454 57 -635 41z"/>
</g>
</svg>
