<svg width="187" height="188" viewBox="0 0 187 188" fill="none" xmlns="http://www.w3.org/2000/svg">
<mask id="mask0_201_420" style="mask-type:luminance" maskUnits="userSpaceOnUse" x="7" y="11" width="176" height="172">
<path d="M7.33008 11.7451H182.158V182.383H7.33008V11.7451Z" fill="white"/>
</mask>
<g mask="url(#mask0_201_420)">
<path fill-rule="evenodd" clip-rule="evenodd" d="M168.382 143.739C158.876 143.474 151.501 144.448 145.321 147.048C143.541 147.764 140.685 147.764 140.45 150.003C141.402 150.943 141.516 152.481 142.35 153.784C143.775 156.148 146.274 159.334 148.531 160.986L156.137 166.422C160.773 169.255 166.003 170.909 170.519 173.745C173.135 175.4 175.749 177.526 178.365 179.3C179.697 180.246 180.504 181.784 182.169 182.372V182.014C181.338 180.955 181.099 179.419 180.27 178.233L176.7 174.81C173.255 170.202 168.974 166.183 164.338 162.879C160.533 160.279 152.216 156.736 150.67 152.368L150.436 152.103C153.047 151.838 156.137 150.92 158.636 150.21C162.681 149.151 166.362 149.384 170.519 148.322L176.228 146.667V145.608C174.089 143.482 172.544 140.646 170.287 138.639C164.226 133.442 157.566 128.361 150.671 124.109C146.986 121.747 142.23 120.209 138.308 118.204C136.878 117.495 134.504 117.14 133.673 115.959C131.528 113.365 130.343 109.936 128.797 106.862L119.052 86.3078C116.912 81.7007 115.601 77.0936 112.99 72.8417C100.746 52.759 87.43 40.5929 66.9849 28.6595C62.5887 26.1784 57.3587 25.1115 51.7989 23.8144L42.8845 23.3378C40.9795 22.5114 39.08 20.2664 37.4145 19.2019C30.6397 14.95 13.165 5.73577 8.16968 17.8781C4.95933 25.5566 12.925 33.1156 15.6296 37.0158C17.654 39.732 20.2653 42.8034 21.6956 45.8748C22.4953 47.8818 22.7615 50.0107 23.5952 52.1367C25.4948 57.3341 27.2802 63.1246 29.7764 67.9698C31.1085 70.4509 32.5072 73.0535 34.1721 75.2961C35.1234 76.62 36.7883 77.1864 37.143 79.3124C35.4776 81.6769 35.3634 85.2172 34.4121 88.1744C30.1305 101.524 31.796 118.062 37.8571 127.89C39.7621 130.842 44.2511 137.342 50.3414 134.859C55.6914 132.733 54.4977 125.999 56.0431 120.092C56.4026 118.676 56.1626 117.731 56.8739 116.783V117.048L61.7496 126.852C65.4342 132.64 71.8549 138.666 77.2019 142.685C80.0527 144.811 82.3118 148.476 85.8768 149.773V149.415H85.6422C84.9285 148.356 83.8572 147.88 82.906 147.054C80.7669 144.928 78.3902 142.328 76.7253 139.966C71.7353 133.352 67.3391 126.026 63.4146 118.467C61.5097 114.805 59.8447 110.788 58.3046 107.127C57.5856 105.707 57.5856 103.579 56.3997 102.875C54.6148 105.469 52.0039 107.72 50.6903 110.908C48.4312 115.986 48.1965 122.247 47.3658 128.745C46.8858 128.864 47.099 128.745 46.8858 129.01C43.0866 128.067 41.7758 124.165 40.3509 120.86C36.7859 112.472 36.1893 99.0059 39.2796 89.318C40.1109 86.8374 43.6808 79.0399 42.2558 76.6783C41.5363 74.4328 39.165 73.1356 37.8542 71.3614C36.3093 69.1164 34.6492 66.283 33.5785 63.8024C30.7276 57.183 29.3022 49.862 26.2089 43.2455C24.7782 40.1741 22.2849 36.9837 20.2624 34.1509C18.0033 30.9604 15.5125 28.7149 13.7271 24.9367C13.1329 23.6128 12.3016 21.5106 13.2529 20.0915C13.4875 19.1466 13.9671 18.7676 14.913 18.5558C16.4579 17.2319 20.8595 18.9104 22.4044 19.6149C26.8007 21.3891 30.4852 23.041 34.1697 25.5192C35.8346 26.7002 37.6201 28.9452 39.7592 29.5384H42.2583C46.0628 30.3648 50.339 29.8032 53.9011 30.8623C60.2018 32.8746 65.9059 35.824 71.0212 39.0174C86.591 48.8219 99.4324 62.7617 108.107 79.4212C109.532 82.1375 110.126 84.6186 111.437 87.4544C113.936 93.2445 117.027 99.1492 119.518 104.823C122.017 110.375 124.393 116.049 127.958 120.656C129.743 123.137 136.873 124.435 140.08 125.735C142.459 126.794 146.141 127.747 148.286 129.044C152.325 131.525 156.367 134.361 160.169 137.077C162.068 138.491 168.015 141.446 168.369 143.803L168.382 143.739ZM47.1602 41.0826C45.5109 41.0681 43.8877 41.2648 42.2903 41.6729V41.9377H42.5245C43.4757 43.8281 45.1407 45.1281 46.329 46.7829L49.0652 52.4544L49.2998 52.1896C50.9648 51.0086 51.7984 49.1182 51.7984 46.2854C51.0848 45.459 50.9672 44.6306 50.3735 43.8043C49.6593 42.6237 48.1139 42.0305 47.1602 41.088V41.0826Z" fill="#00678C"/>
</g>
</svg>
